# Blender 3.6.0
# www.blender.org
o Sphere
v 0.000000 0.382683 1.419743
v 0.000000 0.000000 1.343622
v 0.000000 -0.382683 1.419743
v 0.000000 -0.923880 1.960939
v 0.146447 0.923880 1.990069
v 0.270598 0.707107 1.690341
v 0.353553 0.382683 1.490069
v 0.382683 0.000000 1.419743
v 0.353553 -0.382683 1.490069
v 0.270598 -0.707107 1.690341
v 0.146447 -0.923880 1.990069
v 0.270598 0.923880 2.073024
v 0.500000 0.707107 1.843622
v 0.653282 0.382683 1.690341
v 0.707107 0.000000 1.636515
v 0.653282 -0.382683 1.690341
v 0.500000 -0.707107 1.843622
v 0.270598 -0.923880 2.073024
v 0.353553 0.923880 2.197176
v 0.653281 0.707107 2.073024
v 0.853553 0.382683 1.990069
v 0.923880 0.000000 1.960939
v 0.853553 -0.382683 1.990069
v 0.653281 -0.707107 2.073024
v 0.353553 -0.923880 2.197176
v 0.382683 0.923880 2.343622
v 0.707107 0.707107 2.343622
v 0.923880 0.382683 2.343622
v 1.000000 0.000000 2.343622
v 0.923880 -0.382683 2.343622
v 0.707107 -0.707107 2.343622
v 0.382683 -0.923880 2.343622
v 0.353553 0.923880 2.490069
v 0.653281 0.707107 2.614220
v 0.853553 0.382683 2.697176
v 0.923879 0.000000 2.726306
v 0.853553 -0.382683 2.697176
v 0.653281 -0.707107 2.614220
v 0.353553 -0.923880 2.490069
v 0.270598 0.923880 2.614220
v 0.500000 0.707107 2.843622
v 0.653281 0.382683 2.996904
v 0.707107 0.000000 3.050729
v 0.653281 -0.382683 2.996904
v 0.500000 -0.707107 2.843622
v 0.270598 -0.923880 2.614220
v 0.146447 0.923880 2.697176
v 0.270598 0.707107 2.996904
v 0.353553 0.382683 3.197176
v 0.382683 0.000000 3.267502
v 0.353553 -0.382683 3.197176
v 0.270598 -0.707107 2.996904
v 0.146447 -0.923880 2.697176
v -0.000000 0.923880 2.726306
v -0.000000 0.707107 3.050729
v -0.000000 0.382683 3.267502
v -0.000000 0.000000 3.343622
v -0.000000 -0.382683 3.267502
v -0.000000 -0.707107 3.050729
v -0.000000 -0.923880 2.726306
v 0.000000 -1.000000 2.343622
v 0.000000 1.000000 2.343622
v -0.146447 0.923880 2.697176
v -0.270598 0.707107 2.996903
v -0.353554 0.382683 3.197176
v -0.382684 0.000000 3.267502
v -0.353554 -0.382683 3.197176
v -0.270598 -0.707107 2.996903
v -0.146447 -0.923880 2.697176
v -0.270598 0.923880 2.614220
v -0.500000 0.707107 2.843622
v -0.653282 0.382683 2.996903
v -0.707107 0.000000 3.050729
v -0.653282 -0.382683 2.996903
v -0.500000 -0.707107 2.843622
v -0.270598 -0.923880 2.614220
v -0.353553 0.923880 2.490069
v -0.653281 0.707107 2.614220
v -0.853553 0.382683 2.697175
v -0.923880 0.000000 2.726305
v -0.853553 -0.382683 2.697175
v -0.653281 -0.707107 2.614220
v -0.353553 -0.923880 2.490069
v -0.382683 0.923880 2.343622
v -0.707107 0.707107 2.343622
v -0.923879 0.382683 2.343622
v -1.000000 0.000000 2.343622
v -0.923879 -0.382683 2.343622
v -0.707107 -0.707107 2.343622
v -0.382683 -0.923880 2.343622
v -0.353553 0.923880 2.197176
v -0.653281 0.707107 2.073024
v -0.853553 0.382683 1.990069
v -0.923879 0.000000 1.960938
v -0.853553 -0.382683 1.990069
v -0.653281 -0.707107 2.073024
v -0.353553 -0.923880 2.197176
v -0.270598 0.923880 2.073024
v -0.500000 0.707107 1.843622
v -0.653281 0.382683 1.690341
v -0.707106 0.000000 1.636515
v -0.653281 -0.382683 1.690341
v -0.500000 -0.707107 1.843622
v -0.270598 -0.923880 2.073024
v -0.146446 0.923880 1.990069
v -0.270598 0.707107 1.690341
v -0.353553 0.382683 1.490069
v -0.382683 0.000000 1.419742
v -0.353553 -0.382683 1.490069
v -0.270598 -0.707107 1.690341
v -0.146446 -0.923880 1.990069
v 0.000000 0.923880 1.960939
v 0.000000 0.707107 1.636516
v 0.000000 -0.707107 1.636516
vn -0.0000 -0.6952 -0.7189
vn 0.1543 -0.9152 -0.3724
vn -0.0000 -0.9152 -0.4031
vn -0.0000 -0.0000 -1.0000
vn 0.3549 -0.3744 -0.8567
vn -0.0000 -0.3744 -0.9273
vn -0.0000 0.6952 -0.7189
vn 0.3549 0.3744 -0.8567
vn -0.0000 0.3744 -0.9273
vn -0.0000 0.9152 -0.4031
vn -0.0000 1.0000 -0.0000
vn 0.1543 0.9152 -0.3724
vn -0.0000 -1.0000 -0.0000
vn 0.2751 -0.6952 -0.6641
vn 0.3827 -0.0000 -0.9239
vn 0.2751 0.6952 -0.6641
vn 0.6557 0.3744 -0.6557
vn 0.2850 0.9152 -0.2850
vn 0.2850 -0.9152 -0.2850
vn 0.5083 -0.6952 -0.5083
vn 0.7071 -0.0000 -0.7071
vn 0.5083 0.6952 -0.5083
vn 0.6557 -0.3744 -0.6557
vn 0.3724 -0.9152 -0.1543
vn 0.8567 -0.3744 -0.3549
vn 0.6641 -0.6952 -0.2751
vn 0.8567 0.3744 -0.3549
vn 0.9239 -0.0000 -0.3827
vn 0.6641 0.6952 -0.2751
vn 0.3724 0.9152 -0.1543
vn 0.7189 0.6952 -0.0000
vn 0.4031 -0.9152 -0.0000
vn 1.0000 -0.0000 -0.0000
vn 0.9273 -0.3744 -0.0000
vn 0.9273 0.3744 -0.0000
vn 0.4031 0.9152 -0.0000
vn 0.7189 -0.6952 -0.0000
vn 0.6641 -0.6952 0.2751
vn 0.3724 -0.9152 0.1543
vn 0.8567 -0.3744 0.3549
vn 0.8567 0.3744 0.3549
vn 0.3724 0.9152 0.1543
vn 0.9239 -0.0000 0.3827
vn 0.6641 0.6952 0.2751
vn 0.2850 0.9152 0.2850
vn 0.2850 -0.9152 0.2850
vn 0.5083 -0.6952 0.5083
vn 0.6557 0.3744 0.6557
vn 0.7071 -0.0000 0.7071
vn 0.5083 0.6952 0.5083
vn 0.6557 -0.3744 0.6557
vn 0.3549 -0.3744 0.8567
vn 0.2751 -0.6952 0.6641
vn 0.3827 -0.0000 0.9239
vn 0.2751 0.6952 0.6641
vn 0.1543 -0.9152 0.3724
vn 0.3549 0.3744 0.8567
vn 0.1543 0.9152 0.3724
vn -0.0000 -0.6952 0.7189
vn -0.0000 -0.9152 0.4031
vn -0.0000 -0.3744 0.9273
vn -0.0000 0.3744 0.9273
vn -0.0000 0.9152 0.4031
vn -0.0000 -0.0000 1.0000
vn -0.0000 0.6952 0.7189
vn -0.3549 -0.3744 0.8567
vn -0.3549 0.3744 0.8567
vn -0.1543 0.9152 0.3724
vn -0.1543 -0.9152 0.3724
vn -0.2751 -0.6952 0.6641
vn -0.3827 -0.0000 0.9239
vn -0.2751 0.6952 0.6641
vn -0.2850 -0.9152 0.2850
vn -0.6557 -0.3744 0.6557
vn -0.5083 -0.6952 0.5083
vn -0.6557 0.3744 0.6557
vn -0.7071 -0.0000 0.7071
vn -0.5083 0.6952 0.5083
vn -0.2850 0.9152 0.2850
vn -0.8567 0.3744 0.3549
vn -0.9239 -0.0000 0.3827
vn -0.6641 0.6952 0.2751
vn -0.3724 -0.9152 0.1543
vn -0.8567 -0.3744 0.3549
vn -0.3724 0.9152 0.1543
vn -0.6641 -0.6952 0.2751
vn -0.4031 -0.9152 -0.0000
vn -0.9273 -0.3744 -0.0000
vn -0.9273 0.3744 -0.0000
vn -0.4031 0.9152 -0.0000
vn -0.7189 -0.6952 -0.0000
vn -1.0000 -0.0000 -0.0000
vn -0.7189 0.6952 -0.0000
vn -0.8567 0.3744 -0.3549
vn -0.3724 0.9152 -0.1543
vn -0.3724 -0.9152 -0.1543
vn -0.6641 -0.6952 -0.2751
vn -0.9239 -0.0000 -0.3827
vn -0.6641 0.6952 -0.2751
vn -0.8567 -0.3744 -0.3549
vn -0.2850 -0.9152 -0.2850
vn -0.6557 -0.3744 -0.6557
vn -0.5083 -0.6952 -0.5083
vn -0.6557 0.3744 -0.6557
vn -0.7071 -0.0000 -0.7071
vn -0.5083 0.6952 -0.5083
vn -0.2850 0.9152 -0.2850
vn -0.2751 0.6952 -0.6641
vn -0.1543 -0.9152 -0.3724
vn -0.3549 -0.3744 -0.8567
vn -0.3549 0.3744 -0.8567
vn -0.1543 0.9152 -0.3724
vn -0.2751 -0.6952 -0.6641
vn -0.3827 -0.0000 -0.9239
vt 0.750000 0.250000
vt 0.687500 0.125000
vt 0.750000 0.125000
vt 0.750000 0.500000
vt 0.687500 0.375000
vt 0.750000 0.375000
vt 0.750000 0.750000
vt 0.687500 0.625000
vt 0.750000 0.625000
vt 0.750000 0.875000
vt 0.718750 1.000000
vt 0.687500 0.875000
vt 0.718750 0.000000
vt 0.687500 0.250000
vt 0.687500 0.500000
vt 0.687500 0.750000
vt 0.625000 0.625000
vt 0.656250 1.000000
vt 0.625000 0.875000
vt 0.656250 0.000000
vt 0.625000 0.125000
vt 0.625000 0.250000
vt 0.625000 0.500000
vt 0.625000 0.750000
vt 0.625000 0.375000
vt 0.593750 0.000000
vt 0.562500 0.125000
vt 0.562500 0.375000
vt 0.562500 0.250000
vt 0.562500 0.625000
vt 0.562500 0.500000
vt 0.562500 0.750000
vt 0.593750 1.000000
vt 0.562500 0.875000
vt 0.500000 0.750000
vt 0.500000 0.125000
vt 0.500000 0.500000
vt 0.500000 0.375000
vt 0.500000 0.625000
vt 0.531250 1.000000
vt 0.500000 0.875000
vt 0.531250 0.000000
vt 0.500000 0.250000
vt 0.437500 0.250000
vt 0.437500 0.125000
vt 0.437500 0.375000
vt 0.437500 0.625000
vt 0.468750 1.000000
vt 0.437500 0.875000
vt 0.468750 0.000000
vt 0.437500 0.500000
vt 0.437500 0.750000
vt 0.406250 1.000000
vt 0.375000 0.875000
vt 0.406250 0.000000
vt 0.375000 0.125000
vt 0.375000 0.250000
vt 0.375000 0.625000
vt 0.375000 0.500000
vt 0.375000 0.750000
vt 0.375000 0.375000
vt 0.312500 0.375000
vt 0.312500 0.250000
vt 0.312500 0.500000
vt 0.312500 0.750000
vt 0.312500 0.125000
vt 0.312500 0.625000
vt 0.343750 1.000000
vt 0.312500 0.875000
vt 0.343750 0.000000
vt 0.250000 0.250000
vt 0.250000 0.125000
vt 0.250000 0.375000
vt 0.250000 0.625000
vt 0.281250 1.000000
vt 0.250000 0.875000
vt 0.281250 0.000000
vt 0.250000 0.500000
vt 0.250000 0.750000
vt 0.187500 0.375000
vt 0.187500 0.625000
vt 0.218750 1.000000
vt 0.187500 0.875000
vt 0.218750 0.000000
vt 0.187500 0.125000
vt 0.187500 0.250000
vt 0.187500 0.500000
vt 0.187500 0.750000
vt 0.156250 0.000000
vt 0.125000 0.125000
vt 0.125000 0.375000
vt 0.125000 0.250000
vt 0.125000 0.625000
vt 0.125000 0.500000
vt 0.125000 0.750000
vt 0.156250 1.000000
vt 0.125000 0.875000
vt 0.062500 0.625000
vt 0.062500 0.500000
vt 0.062500 0.750000
vt 0.062500 0.125000
vt 0.062500 0.375000
vt 0.093750 1.000000
vt 0.062500 0.875000
vt 0.093750 0.000000
vt 0.062500 0.250000
vt 0.000000 0.125000
vt 0.000000 0.375000
vt 0.000000 0.625000
vt 0.031250 1.000000
vt 0.000000 0.875000
vt 0.031250 0.000000
vt 0.000000 0.250000
vt 0.000000 0.500000
vt 0.000000 0.750000
vt 1.000000 0.750000
vt 0.937500 0.625000
vt 1.000000 0.625000
vt 1.000000 0.875000
vt 0.968750 1.000000
vt 0.937500 0.875000
vt 0.968750 0.000000
vt 1.000000 0.125000
vt 0.937500 0.125000
vt 1.000000 0.375000
vt 0.937500 0.250000
vt 1.000000 0.250000
vt 1.000000 0.500000
vt 0.937500 0.500000
vt 0.937500 0.750000
vt 0.937500 0.375000
vt 0.906250 0.000000
vt 0.875000 0.125000
vt 0.875000 0.375000
vt 0.875000 0.250000
vt 0.875000 0.625000
vt 0.875000 0.500000
vt 0.875000 0.750000
vt 0.906250 1.000000
vt 0.875000 0.875000
vt 0.812500 0.750000
vt 0.812500 0.125000
vt 0.812500 0.375000
vt 0.812500 0.625000
vt 0.843750 1.000000
vt 0.812500 0.875000
vt 0.843750 0.000000
vt 0.812500 0.250000
vt 0.812500 0.500000
vt 0.781250 1.000000
vt 0.781250 0.000000
s 1
f 114/1/1 11/2/2 4/3/3
f 2/4/4 9/5/5 3/6/6
f 113/7/7 7/8/8 1/9/9
f 112/10/10 62/11/11 5/12/12
f 61/13/13 4/3/3 11/2/2
f 114/1/1 9/5/5 10/14/14
f 1/9/9 8/15/15 2/4/4
f 113/7/7 5/12/12 6/16/16
f 6/16/16 14/17/17 7/8/8
f 5/12/12 62/18/11 12/19/18
f 61/20/13 11/2/2 18/21/19
f 9/5/5 17/22/20 10/14/14
f 7/8/8 15/23/21 8/15/15
f 5/12/12 13/24/22 6/16/16
f 10/14/14 18/21/19 11/2/2
f 9/5/5 15/23/21 16/25/23
f 61/26/13 18/21/19 25/27/24
f 17/22/20 23/28/25 24/29/26
f 15/23/21 21/30/27 22/31/28
f 12/19/18 20/32/29 13/24/22
f 17/22/20 25/27/24 18/21/19
f 15/23/21 23/28/25 16/25/23
f 13/24/22 21/30/27 14/17/17
f 12/19/18 62/33/11 19/34/30
f 19/34/30 27/35/31 20/32/29
f 24/29/26 32/36/32 25/27/24
f 23/28/25 29/37/33 30/38/34
f 21/30/27 27/35/31 28/39/35
f 19/34/30 62/40/11 26/41/36
f 61/42/13 25/27/24 32/36/32
f 23/28/25 31/43/37 24/29/26
f 21/30/27 29/37/33 22/31/28
f 32/36/32 38/44/38 39/45/39
f 29/37/33 37/46/40 30/38/34
f 27/35/31 35/47/41 28/39/35
f 26/41/36 62/48/11 33/49/42
f 61/50/13 32/36/32 39/45/39
f 30/38/34 38/44/38 31/43/37
f 28/39/35 36/51/43 29/37/33
f 27/35/31 33/49/42 34/52/44
f 33/49/42 62/53/11 40/54/45
f 61/55/13 39/45/39 46/56/46
f 37/46/40 45/57/47 38/44/38
f 36/51/43 42/58/48 43/59/49
f 34/52/44 40/54/45 41/60/50
f 39/45/39 45/57/47 46/56/46
f 36/51/43 44/61/51 37/46/40
f 34/52/44 42/58/48 35/47/41
f 45/57/47 51/62/52 52/63/53
f 42/58/48 50/64/54 43/59/49
f 40/54/45 48/65/55 41/60/50
f 45/57/47 53/66/56 46/56/46
f 44/61/51 50/64/54 51/62/52
f 41/60/50 49/67/57 42/58/48
f 40/54/45 62/68/11 47/69/58
f 61/70/13 46/56/46 53/66/56
f 53/66/56 59/71/59 60/72/60
f 50/64/54 58/73/61 51/62/52
f 48/65/55 56/74/62 49/67/57
f 47/69/58 62/75/11 54/76/63
f 61/77/13 53/66/56 60/72/60
f 51/62/52 59/71/59 52/63/53
f 50/64/54 56/74/62 57/78/64
f 47/69/58 55/79/65 48/65/55
f 57/78/64 67/80/66 58/73/61
f 55/79/65 65/81/67 56/74/62
f 54/76/63 62/82/11 63/83/68
f 61/84/13 60/72/60 69/85/69
f 59/71/59 67/80/66 68/86/70
f 56/74/62 66/87/71 57/78/64
f 54/76/63 64/88/72 55/79/65
f 59/71/59 69/85/69 60/72/60
f 61/89/13 69/85/69 76/90/73
f 68/86/70 74/91/74 75/92/75
f 66/87/71 72/93/76 73/94/77
f 63/83/68 71/95/78 64/88/72
f 69/85/69 75/92/75 76/90/73
f 66/87/71 74/91/74 67/80/66
f 64/88/72 72/93/76 65/81/67
f 63/83/68 62/96/11 70/97/79
f 73/94/77 79/98/80 80/99/81
f 70/97/79 78/100/82 71/95/78
f 75/92/75 83/101/83 76/90/73
f 73/94/77 81/102/84 74/91/74
f 71/95/78 79/98/80 72/93/76
f 70/97/79 62/103/11 77/104/85
f 61/105/13 76/90/73 83/101/83
f 75/92/75 81/102/84 82/106/86
f 82/106/86 90/107/87 83/101/83
f 80/99/81 88/108/88 81/102/84
f 78/100/82 86/109/89 79/98/80
f 77/104/85 62/110/11 84/111/90
f 61/112/13 83/101/83 90/107/87
f 82/106/86 88/108/88 89/113/91
f 80/99/81 86/109/89 87/114/92
f 78/100/82 84/111/90 85/115/93
f 85/116/93 93/117/94 86/118/89
f 84/119/90 62/120/11 91/121/95
f 61/122/13 90/123/87 97/124/96
f 88/125/88 96/126/97 89/127/91
f 87/128/92 93/117/94 94/129/98
f 84/119/90 92/130/99 85/116/93
f 89/127/91 97/124/96 90/123/87
f 87/128/92 95/131/100 88/125/88
f 61/132/13 97/124/96 104/133/101
f 96/126/97 102/134/102 103/135/103
f 94/129/98 100/136/104 101/137/105
f 91/121/95 99/138/106 92/130/99
f 96/126/97 104/133/101 97/124/96
f 94/129/98 102/134/102 95/131/100
f 92/130/99 100/136/104 93/117/94
f 91/121/95 62/139/11 98/140/107
f 98/140/107 106/141/108 99/138/106
f 103/135/103 111/142/109 104/133/101
f 101/137/105 109/143/110 102/134/102
f 99/138/106 107/144/111 100/136/104
f 98/140/107 62/145/11 105/146/112
f 61/147/13 104/133/101 111/142/109
f 103/135/103 109/143/110 110/148/113
f 101/137/105 107/144/111 108/149/114
f 110/148/113 4/3/3 111/142/109
f 108/149/114 3/6/6 109/143/110
f 106/141/108 1/9/9 107/144/111
f 105/146/112 62/150/11 112/10/10
f 61/151/13 111/142/109 4/3/3
f 110/148/113 3/6/6 114/1/1
f 107/144/111 2/4/4 108/149/114
f 106/141/108 112/10/10 113/7/7
f 114/1/1 10/14/14 11/2/2
f 2/4/4 8/15/15 9/5/5
f 113/7/7 6/16/16 7/8/8
f 114/1/1 3/6/6 9/5/5
f 1/9/9 7/8/8 8/15/15
f 113/7/7 112/10/10 5/12/12
f 6/16/16 13/24/22 14/17/17
f 9/5/5 16/25/23 17/22/20
f 7/8/8 14/17/17 15/23/21
f 5/12/12 12/19/18 13/24/22
f 10/14/14 17/22/20 18/21/19
f 9/5/5 8/15/15 15/23/21
f 17/22/20 16/25/23 23/28/25
f 15/23/21 14/17/17 21/30/27
f 12/19/18 19/34/30 20/32/29
f 17/22/20 24/29/26 25/27/24
f 15/23/21 22/31/28 23/28/25
f 13/24/22 20/32/29 21/30/27
f 19/34/30 26/41/36 27/35/31
f 24/29/26 31/43/37 32/36/32
f 23/28/25 22/31/28 29/37/33
f 21/30/27 20/32/29 27/35/31
f 23/28/25 30/38/34 31/43/37
f 21/30/27 28/39/35 29/37/33
f 32/36/32 31/43/37 38/44/38
f 29/37/33 36/51/43 37/46/40
f 27/35/31 34/52/44 35/47/41
f 30/38/34 37/46/40 38/44/38
f 28/39/35 35/47/41 36/51/43
f 27/35/31 26/41/36 33/49/42
f 37/46/40 44/61/51 45/57/47
f 36/51/43 35/47/41 42/58/48
f 34/52/44 33/49/42 40/54/45
f 39/45/39 38/44/38 45/57/47
f 36/51/43 43/59/49 44/61/51
f 34/52/44 41/60/50 42/58/48
f 45/57/47 44/61/51 51/62/52
f 42/58/48 49/67/57 50/64/54
f 40/54/45 47/69/58 48/65/55
f 45/57/47 52/63/53 53/66/56
f 44/61/51 43/59/49 50/64/54
f 41/60/50 48/65/55 49/67/57
f 53/66/56 52/63/53 59/71/59
f 50/64/54 57/78/64 58/73/61
f 48/65/55 55/79/65 56/74/62
f 51/62/52 58/73/61 59/71/59
f 50/64/54 49/67/57 56/74/62
f 47/69/58 54/76/63 55/79/65
f 57/78/64 66/87/71 67/80/66
f 55/79/65 64/88/72 65/81/67
f 59/71/59 58/73/61 67/80/66
f 56/74/62 65/81/67 66/87/71
f 54/76/63 63/83/68 64/88/72
f 59/71/59 68/86/70 69/85/69
f 68/86/70 67/80/66 74/91/74
f 66/87/71 65/81/67 72/93/76
f 63/83/68 70/97/79 71/95/78
f 69/85/69 68/86/70 75/92/75
f 66/87/71 73/94/77 74/91/74
f 64/88/72 71/95/78 72/93/76
f 73/94/77 72/93/76 79/98/80
f 70/97/79 77/104/85 78/100/82
f 75/92/75 82/106/86 83/101/83
f 73/94/77 80/99/81 81/102/84
f 71/95/78 78/100/82 79/98/80
f 75/92/75 74/91/74 81/102/84
f 82/106/86 89/113/91 90/107/87
f 80/99/81 87/114/92 88/108/88
f 78/100/82 85/115/93 86/109/89
f 82/106/86 81/102/84 88/108/88
f 80/99/81 79/98/80 86/109/89
f 78/100/82 77/104/85 84/111/90
f 85/116/93 92/130/99 93/117/94
f 88/125/88 95/131/100 96/126/97
f 87/128/92 86/118/89 93/117/94
f 84/119/90 91/121/95 92/130/99
f 89/127/91 96/126/97 97/124/96
f 87/128/92 94/129/98 95/131/100
f 96/126/97 95/131/100 102/134/102
f 94/129/98 93/117/94 100/136/104
f 91/121/95 98/140/107 99/138/106
f 96/126/97 103/135/103 104/133/101
f 94/129/98 101/137/105 102/134/102
f 92/130/99 99/138/106 100/136/104
f 98/140/107 105/146/112 106/141/108
f 103/135/103 110/148/113 111/142/109
f 101/137/105 108/149/114 109/143/110
f 99/138/106 106/141/108 107/144/111
f 103/135/103 102/134/102 109/143/110
f 101/137/105 100/136/104 107/144/111
f 110/148/113 114/1/1 4/3/3
f 108/149/114 2/4/4 3/6/6
f 106/141/108 113/7/7 1/9/9
f 110/148/113 109/143/110 3/6/6
f 107/144/111 1/9/9 2/4/4
f 106/141/108 105/146/112 112/10/10
