# Blender 3.6.0
# www.blender.org
o Cube.003
v 29.000000 0.000000 -5.000000
v 29.000000 1.000000 -5.000000
v 30.000000 2.000000 -1.000000
v 29.000000 1.000000 -6.000000
v 30.000000 1.000000 -5.000000
v 30.000000 2.000000 -2.000000
v 30.000000 4.000000 -6.000000
v 30.000000 4.000000 -5.000000
v 28.000000 0.000000 -6.000000
v 28.000000 0.000000 -5.000000
v 28.000000 1.000000 -5.000000
v 28.000000 1.000000 -6.000000
v 30.000000 1.000000 -2.000000
v 29.000000 2.000000 -2.000000
v 29.000000 0.000000 -1.000000
v 30.000000 1.000000 -1.000000
v 30.000000 0.000000 -1.000000
v 30.000000 3.000000 -2.000000
v 29.000000 3.000000 -2.000000
v 30.000000 3.000000 -1.000000
v 29.000000 3.000000 -1.000000
v 26.500000 0.000000 -2.000000
v 29.000000 0.000000 -2.000000
v 26.500000 0.000000 -1.000000
v 26.500000 1.000000 -2.000000
v 26.500000 1.000000 -1.000000
v 29.000000 2.000000 -1.000000
v 18.000000 0.000000 -1.000000
v 18.000000 3.000000 -1.000000
v 25.000000 0.000000 -1.000000
v 25.000000 3.000000 -1.000000
v 25.000000 0.000000 -3.000000
v 25.000000 3.000000 -3.000000
v 25.000000 7.000000 -3.000000
v 25.000000 7.000000 -1.000000
v 22.999998 0.000000 -3.000000
v 20.899998 0.000000 -3.000000
v 20.900000 3.000000 -3.000000
v 23.000000 3.000000 -3.000000
v 20.900000 0.000000 -1.000000
v 23.000000 0.000000 -1.000000
v 22.999998 3.000000 -1.000000
v 20.899998 3.000000 -1.000000
v 20.900000 0.000000 4.000000
v 23.000000 0.000000 4.000000
v 22.999998 3.000000 4.000000
v 20.899998 3.000000 4.000000
v 20.899998 3.000000 -0.700000
v 22.999998 3.000000 -0.700000
v 23.000000 0.000000 -0.700000
v 20.900000 0.000000 -0.700000
v 22.999998 3.000000 2.000000
v 20.899998 3.000000 2.000000
v 22.999998 3.000000 1.000000
v 20.899998 3.000000 1.000000
v 18.899998 3.000000 -0.700000
v 25.000000 0.000000 -0.700000
v 24.999998 3.000000 -0.700000
v 18.900000 -0.000000 -0.700000
v 25.250000 0.000000 -1.000000
v 25.250000 3.000000 -1.000000
v 25.250000 0.000000 -3.000000
v 25.250000 3.000000 -3.000000
v 25.250000 7.000000 -1.000000
v 25.250000 7.000000 -3.000000
v 30.000000 0.000000 -6.000000
v 30.000000 0.000000 2.000000
v 25.250000 0.000000 2.000000
v 25.250000 0.000000 -6.000000
v 30.000000 7.000000 -6.000000
v 30.000000 7.000000 2.000000
v 25.250000 3.000000 2.000000
v 25.250000 3.000000 -6.000000
v 25.250000 7.000000 2.000000
v 25.250000 7.000000 -6.000000
v 13.000000 0.000000 -3.000000
v 13.000000 0.000000 -1.000000
v 13.000000 3.000000 -1.000000
v 13.000000 3.000000 -3.000000
v 18.000000 3.000000 -8.000000
v 18.000000 0.000000 -8.000000
v 13.000000 3.000000 -8.000000
v 13.000000 0.000000 -8.000000
v 16.000000 3.000000 -3.000000
v 15.000000 3.000000 -3.000000
v 15.000000 3.000000 -1.000000
v 16.000000 3.000000 -1.000000
v 16.000000 0.000000 -1.000000
v 15.000000 0.000000 -1.000000
v 15.000000 0.000000 -3.000000
v 16.000000 0.000000 -3.000000
v 16.000000 3.000000 -8.000000
v 15.000000 3.000000 -8.000000
v 15.000000 0.000000 -8.000000
v 16.000000 0.000000 -8.000000
v 13.000000 0.000000 -4.000000
v 18.000000 0.000000 -4.000000
v 13.000000 3.000000 -4.000000
v 18.000000 3.000000 -4.000000
v 15.000000 3.000000 -4.000000
v 16.000000 3.000000 -4.000000
v 16.000000 0.000000 -4.000000
v 15.000000 0.000000 -4.000000
v 13.000000 0.000000 -7.000000
v 13.000000 3.000000 -7.000000
v 15.000000 3.000000 -7.000000
v 16.000000 3.000000 -7.000000
v 16.000000 0.000000 -7.000000
v 15.000000 0.000000 -7.000000
v 18.000000 0.000000 -7.000000
v 18.000000 3.000000 -7.000000
v 18.000000 0.000000 -5.950000
v 18.000000 3.000000 -5.950000
v 13.000000 0.000000 -5.950000
v 13.000000 3.000000 -5.950000
v 15.000000 3.000000 -5.950000
v 16.000000 3.000000 -5.950000
v 16.000000 0.000000 -5.950000
v 15.000000 0.000000 -5.950000
v 18.000000 0.000000 -3.775702
v 18.775703 0.000000 -3.000000
v 18.000000 0.000000 -2.224298
v 17.224297 0.000000 -3.000000
v 18.775703 3.000000 -3.000000
v 18.000000 3.000000 -3.775702
v 17.224297 3.000000 -3.000000
v 18.000000 3.000000 -2.224298
v 24.299593 3.000000 4.000000
v 24.999998 3.000000 3.299595
v 25.000000 0.000000 3.299595
v 24.299593 0.000000 4.000000
v 18.899998 3.000000 3.299595
v 19.600405 3.000000 4.000000
v 19.600405 -0.000000 4.000000
v 18.900000 -0.000000 3.299595
v 23.000000 0.000000 1.000000
v 20.900000 0.000000 1.000000
v 23.000000 0.000000 2.000000
v 20.900000 0.000000 2.000000
v 21.949999 0.000000 1.000000
v 21.949999 3.000000 2.000000
v 21.949999 3.000000 1.000000
v 21.949999 0.000000 2.000000
v 13.700000 3.000000 -3.000000
v 13.700000 0.000000 -3.000000
v 13.700000 0.000000 -4.000000
v 13.700000 3.000000 -4.000000
v 13.700000 0.000000 -5.950000
v 13.700000 0.000000 -7.000000
v 13.700000 3.000000 -5.950000
v 13.700000 3.000000 -7.000000
v 25.000000 4.333333 -1.000000
v 25.000000 5.666667 -1.000000
v 25.000000 5.666667 -3.000000
v 25.000000 4.333333 -3.000000
v 25.250000 4.333333 -1.000000
v 25.250000 5.666667 -1.000000
v 25.250000 4.333333 -3.000000
v 25.250000 5.666667 -3.000000
v 30.000000 4.333333 -6.000000
v 30.000000 5.666667 -6.000000
v 30.000000 5.666667 2.000000
v 30.000000 4.333333 2.000000
v 25.250000 4.333333 2.000000
v 25.250000 5.666667 2.000000
v 25.250000 4.333333 -6.000000
v 25.250000 5.666667 -6.000000
v 26.833334 4.333333 -6.000000
v 28.416668 4.333333 -6.000000
v 26.833334 5.666667 -6.000000
v 28.416668 5.666667 -6.000000
v 28.416668 4.333333 2.000000
v 26.833334 4.333333 2.000000
v 28.416668 5.666667 2.000000
v 26.833334 5.666667 2.000000
v 29.000000 1.000000 -1.000000
v 29.000000 3.983441 -6.000000
v 29.000000 4.000159 -5.000000
v 29.000000 1.000000 -2.000000
vn -0.0000 1.0000 -0.0000
vn -1.0000 -0.0000 -0.0000
vn 0.0002 1.0000 -0.0000
vn -0.0000 -0.0000 1.0000
vn -0.0000 -0.0000 -1.0000
vn -0.3714 0.9285 -0.0000
vn -0.0000 -1.0000 -0.0000
vn 1.0000 -0.0000 -0.0000
vn -0.7071 -0.0000 0.7071
vn -0.7071 -0.0000 -0.7071
vn 0.7071 -0.0000 -0.7071
vn -0.0166 0.9997 -0.0167
vt 0.435349 0.866740
vt 0.262628 0.694020
vt 0.435349 0.694020
vt 0.815209 0.189687
vt 0.987930 0.704989
vt 0.987930 0.189687
vt 0.608069 0.866740
vt 0.608069 0.694020
vt 0.987930 0.016966
vt 0.815209 0.016966
vt 0.435349 0.189687
vt 0.262628 0.016966
vt 0.435349 0.016966
vt 0.435349 0.362408
vt 0.608069 0.535128
vt 0.608069 0.362408
vt 0.608069 0.175858
vt 0.297047 0.016966
vt 0.297047 0.189687
vt 0.608069 0.189687
vt 0.608069 0.016966
vt 0.435349 0.189687
vt 0.435349 0.175858
vt 0.608069 0.003138
vt 0.124327 0.362408
vt 0.297047 0.535128
vt 0.297047 0.362408
vt 0.435349 0.535128
vt 0.003547 0.175858
vt 0.435349 0.003138
vt 0.003547 0.189687
vt 0.608069 0.707849
vt 0.005686 0.418597
vt 0.121296 0.534207
vt 0.121296 0.418597
vt 0.699346 0.373053
vt 0.583736 0.546468
vt 0.583736 0.373053
vt 0.713798 0.534207
vt 0.713798 0.418597
vt 0.988372 0.245182
vt 0.294711 0.373053
vt 0.462346 0.546468
vt 0.462346 0.373053
vt 0.583736 0.418597
vt 0.699346 0.534207
vt 0.583736 0.534207
vt 0.294711 0.592012
vt 0.294711 0.579047
vt 0.249872 0.534207
vt 0.169371 0.546468
vt 0.342786 0.373053
vt 0.342786 0.546468
vt 0.458397 0.777688
vt 0.342786 0.700615
vt 0.458397 0.700615
vt 0.713798 0.700615
vt 0.699346 0.777688
vt 0.699346 0.700615
vt 0.699346 0.418597
vt 0.583736 0.534207
vt 0.583736 0.418597
vt 0.462346 0.534207
vt 0.179101 0.592012
vt 0.179101 0.534207
vt 0.462346 0.418597
vt 0.583736 0.373053
vt 0.699346 0.546468
vt 0.462346 0.129572
vt 0.462346 0.245182
vt 0.523041 0.245182
vt 0.339551 0.534207
vt 0.583736 0.546468
vt 0.583736 0.129572
vt 0.583736 0.245182
vt 0.583736 0.302987
vt 0.699346 0.170059
vt 0.325445 0.546468
vt 0.325445 0.373053
vt 0.462346 0.401256
vt 0.583736 0.401256
vt 0.583736 0.245182
vt 0.583736 0.302987
vt 0.462346 0.302987
vt 0.346736 0.170059
vt 0.523041 0.302987
vt 0.658859 0.546468
vt 0.094248 0.546468
vt 0.346736 0.373053
vt 0.387223 0.373053
vt 0.462346 0.302987
vt 0.346736 0.170059
vt 0.699346 0.700615
vt 0.713798 0.373053
vt 0.713798 0.546468
vt 0.988372 0.707622
vt 0.631812 0.373053
vt 0.458397 0.546468
vt 0.458397 0.373053
vt 0.169371 0.623541
vt 0.342786 0.623541
vt 0.631812 0.700615
vt 0.458397 0.700615
vt 0.005686 0.534207
vt 0.121296 0.823232
vt 0.005686 0.765427
vt 0.121296 0.765427
vt 0.005686 0.373053
vt 0.121296 0.546468
vt 0.121296 0.373053
vt 0.005686 0.546468
vt 0.747422 0.373053
vt 0.689617 0.546468
vt 0.689617 0.373053
vt 0.747422 0.546468
vt 0.179101 0.823232
vt 0.294711 0.765427
vt 0.179101 0.765427
vt 0.005686 0.823232
vt 0.179101 0.546468
vt 0.294711 0.546468
vt 0.179101 0.373053
vt 0.294711 0.823232
vt 0.339551 0.546468
vt 0.339551 0.373053
vt 0.179101 0.418597
vt 0.294711 0.418597
vt 0.294711 0.489368
vt 0.516202 0.373053
vt 0.516202 0.546468
vt 0.503236 0.373053
vt 0.503236 0.546468
vt 0.046149 0.704732
vt 0.046149 0.765427
vt 0.046149 0.373053
vt 0.121296 0.704732
vt 0.179101 0.704732
vt 0.294711 0.704732
vt 0.628921 0.546468
vt 0.628921 0.373053
vt 0.046149 0.546468
vt 0.046149 0.592012
vt 0.121296 0.592012
vt 0.005686 0.592012
vt 0.005686 0.704732
vt 0.658859 0.373053
vt 0.387223 0.546468
vt 0.346736 0.546468
vt 0.094248 0.373053
vt 0.523041 0.302987
vt 0.583736 0.401256
vt 0.523041 0.373053
vt 0.169371 0.546468
vt 0.227176 0.373053
vt 0.169371 0.373053
vt 0.631812 0.546468
vt 0.458397 0.623541
vt 0.631812 0.623541
vt 0.169371 0.700615
vt 0.169371 0.777688
vt 0.342786 0.777688
vt 0.169371 0.700615
vt 0.896847 0.623541
vt 0.805322 0.623541
vt 0.805322 0.700615
vt 0.713798 0.623541
vt 0.896847 0.700615
vt 0.988372 0.623541
vt 0.699346 0.623541
vt 0.988372 0.700615
vt 0.805322 0.707622
vt 0.896847 0.245182
vt 0.896847 0.707622
vt 0.713798 0.777688
vt 0.896847 0.700615
vt 0.988372 0.777688
vt 0.805322 0.245182
vt 0.297047 0.189687
vt 0.124327 0.016966
vt 0.124327 0.189687
vt 0.262628 0.866740
vt 0.815209 0.707876
vt 0.262628 0.189687
vt 0.124327 0.535128
vt 0.003547 0.003138
vt 0.003547 0.016966
vt 0.435349 0.707876
vt 0.713798 0.245182
vt 0.713798 0.707622
vt 0.583736 0.129572
vt 0.658859 0.129572
vt 0.699346 0.401256
vt 0.658859 0.129572
vt 0.387223 0.129572
vt 0.346736 0.401256
vt 0.346736 0.401256
vt 0.631812 0.777688
vt 0.046149 0.534207
vt 0.523041 0.546468
vt 0.227176 0.546468
vt 0.988372 0.373053
vt 0.988372 0.700615
s 0
f 4/1/1 11/2/1 2/3/1
f 2/4/2 177/5/2 4/6/2
f 7/7/3 178/3/3 8/8/3
f 11/4/2 9/9/2 10/10/2
f 2/11/4 10/12/4 1/13/4
f 14/14/5 18/15/5 6/16/5
f 2/3/1 13/17/1 5/8/1
f 2/4/2 23/18/2 179/19/2
f 16/20/4 15/13/4 17/21/4
f 179/22/5 6/16/5 13/20/5
f 176/22/4 3/16/4 27/14/4
f 19/23/1 20/24/1 18/17/1
f 27/25/2 19/26/2 14/27/2
f 3/16/4 21/28/4 27/14/4
f 25/29/6 27/30/6 14/23/6
f 26/31/4 15/13/4 176/22/4
f 8/32/4 2/11/4 5/20/4
f 23/13/5 25/31/5 179/22/5
f 78/33/7 85/34/7 86/35/7
f 32/36/4 39/37/4 36/38/4
f 62/39/1 60/40/1 67/41/1
f 28/42/5 43/43/5 40/44/5
f 41/45/1 32/46/1 36/47/1
f 99/48/7 125/49/7 126/50/7
f 72/51/8 60/52/8 61/53/8
f 34/54/8 153/55/8 154/56/8
f 159/57/4 34/58/4 154/59/4
f 31/60/7 39/61/7 33/46/7
f 42/62/7 38/63/7 39/61/7
f 102/64/1 91/65/1 123/50/1
f 40/66/1 36/47/1 37/63/1
f 41/67/5 31/68/5 30/36/5
f 47/69/7 53/70/7 141/71/7
f 40/66/1 37/63/1 121/72/1
f 36/38/4 38/43/4 37/44/4
f 44/44/5 46/73/5 45/67/5
f 45/74/1 138/75/1 143/71/1
f 136/76/1 138/75/1 130/77/1
f 50/67/4 58/68/4 49/73/4
f 48/78/8 40/52/8 43/53/8
f 50/79/2 42/53/2 41/52/2
f 51/80/1 41/45/1 40/66/1
f 49/81/7 43/66/7 42/62/7
f 52/82/7 54/83/7 129/77/7
f 55/84/7 53/70/7 132/85/7
f 142/86/7 55/84/7 48/80/7
f 128/87/5 45/67/5 46/73/5
f 132/88/8 59/79/8 56/78/8
f 48/43/4 59/89/4 51/44/4
f 134/90/5 47/43/5 44/44/5
f 139/70/1 137/91/1 135/92/1
f 35/58/5 157/57/5 153/93/5
f 65/39/7 35/60/7 34/46/7
f 62/94/4 33/68/4 32/36/4
f 60/40/1 32/46/1 30/60/1
f 61/95/5 30/36/5 31/68/5
f 64/40/7 65/39/7 70/96/7
f 69/97/8 63/98/8 62/99/8
f 164/100/8 61/53/8 156/101/8
f 167/102/8 65/54/8 159/103/8
f 76/99/8 78/53/8 77/52/8
f 76/104/1 89/35/1 90/34/1
f 94/105/1 104/106/1 109/107/1
f 77/108/5 86/109/5 89/110/5
f 82/111/4 94/110/4 93/109/4
f 83/112/8 105/113/8 104/114/8
f 80/115/2 110/114/2 111/113/2
f 92/116/7 111/117/7 107/118/7
f 82/119/7 106/107/7 105/106/7
f 93/105/7 107/118/7 106/107/7
f 92/120/4 81/42/4 80/121/4
f 93/109/4 95/122/4 92/120/4
f 88/122/5 29/121/5 28/42/5
f 89/110/5 87/120/5 88/122/5
f 81/123/1 108/118/1 110/117/1
f 95/116/1 109/107/1 108/118/1
f 37/44/4 124/124/4 121/125/4
f 90/34/1 88/126/1 91/65/1
f 29/127/7 127/128/7 124/72/7
f 86/35/7 84/65/7 87/126/7
f 84/98/8 102/129/8 101/130/8
f 99/130/2 120/131/2 125/132/2
f 101/120/5 103/110/5 100/109/5
f 106/107/7 150/133/7 151/134/7
f 87/126/7 126/50/7 127/128/7
f 148/135/4 115/111/4 114/108/4
f 149/134/1 119/136/1 109/107/1
f 119/110/4 117/120/4 116/109/4
f 110/117/1 118/137/1 112/138/1
f 109/114/2 116/139/2 106/113/2
f 107/118/7 113/138/7 117/137/7
f 111/113/2 112/140/2 113/139/2
f 147/141/5 96/108/5 98/111/5
f 146/142/1 90/34/1 103/143/1
f 119/136/1 96/144/1 103/143/1
f 114/140/8 98/130/8 96/129/8
f 113/139/2 97/129/2 99/130/2
f 117/137/7 99/48/7 101/64/7
f 115/145/7 100/143/7 98/144/7
f 116/136/7 101/64/7 100/143/7
f 112/138/1 102/64/1 97/48/1
f 118/137/1 103/143/1 102/64/1
f 118/140/8 107/113/8 117/139/8
f 108/122/5 106/109/5 107/120/5
f 85/109/4 91/122/4 84/120/4
f 100/130/2 90/99/2 85/98/2
f 120/49/1 122/128/1 121/72/1
f 127/128/7 125/49/7 124/72/7
f 125/121/9 121/125/9 124/124/9
f 88/126/1 28/127/1 122/128/1
f 129/68/10 131/146/10 128/87/10
f 133/147/11 135/89/11 132/148/11
f 130/149/2 58/78/2 57/79/2
f 141/71/7 55/84/7 142/86/7
f 140/150/1 136/76/1 50/151/1
f 140/152/5 54/73/5 136/67/5
f 139/70/1 140/150/1 137/91/1
f 141/153/2 140/154/2 143/155/2
f 136/154/8 52/153/8 138/155/8
f 52/73/4 143/152/4 138/67/4
f 146/129/8 144/98/8 145/99/8
f 149/114/8 150/139/8 148/140/8
f 151/141/5 104/108/5 105/111/5
f 85/34/7 147/142/7 100/143/7
f 145/135/4 79/111/4 76/108/4
f 73/156/8 158/157/8 63/98/8
f 166/158/8 159/103/8 158/157/8
f 161/102/2 163/100/2 162/159/2
f 74/160/8 157/55/8 64/161/8
f 165/162/8 156/101/8 157/55/8
f 169/163/4 168/164/4 73/95/4
f 170/165/4 166/166/4 168/164/4
f 174/167/5 163/168/5 172/163/5
f 152/169/5 61/95/5 31/68/5
f 153/93/5 156/166/5 152/169/5
f 63/95/4 155/169/4 33/68/4
f 158/166/4 154/59/4 155/169/4
f 155/157/8 31/53/8 33/98/8
f 154/56/8 152/101/8 155/157/8
f 165/57/5 173/164/5 164/166/5
f 168/158/2 175/162/2 170/102/2
f 161/170/4 169/163/4 160/168/4
f 170/171/1 174/172/1 171/173/1
f 75/174/4 170/165/4 171/175/4
f 71/176/5 174/167/5 175/165/5
f 72/95/5 173/164/5 172/163/5
f 169/173/7 173/177/7 168/171/7
f 171/102/8 172/100/8 169/158/8
f 26/31/4 176/22/4 27/14/4
f 179/22/5 25/31/5 14/14/5
f 25/178/2 24/179/2 26/180/2
f 4/1/1 12/181/1 11/2/1
f 2/4/2 178/182/2 177/5/2
f 7/7/12 177/1/12 178/3/12
f 11/4/2 12/6/2 9/9/2
f 2/11/4 11/183/4 10/12/4
f 14/14/5 19/28/5 18/15/5
f 2/3/1 179/23/1 13/17/1
f 2/4/2 1/10/2 23/18/2
f 16/20/4 176/22/4 15/13/4
f 179/22/5 14/14/5 6/16/5
f 176/22/4 16/20/4 3/16/4
f 19/23/1 21/30/1 20/24/1
f 27/25/2 21/184/2 19/26/2
f 3/16/4 20/15/4 21/28/4
f 25/29/6 26/185/6 27/30/6
f 26/31/4 24/186/4 15/13/4
f 8/32/4 178/187/4 2/11/4
f 23/13/5 22/186/5 25/31/5
f 78/33/7 79/104/7 85/34/7
f 32/36/4 33/68/4 39/37/4
f 60/40/1 68/188/1 67/41/1
f 67/41/1 66/96/1 62/39/1
f 66/96/1 69/189/1 62/39/1
f 28/42/5 29/121/5 43/43/5
f 41/45/1 30/60/1 32/46/1
f 126/50/7 84/65/7 101/64/7
f 101/64/7 99/48/7 126/50/7
f 72/51/8 68/155/8 60/52/8
f 34/54/8 35/161/8 153/55/8
f 159/57/4 65/174/4 34/58/4
f 31/60/7 42/62/7 39/61/7
f 42/62/7 43/66/7 38/63/7
f 123/50/1 120/49/1 97/48/1
f 97/48/1 102/64/1 123/50/1
f 40/66/1 41/45/1 36/47/1
f 41/67/5 42/73/5 31/68/5
f 141/71/7 52/82/7 46/190/7
f 46/190/7 47/69/7 141/71/7
f 121/72/1 122/128/1 28/127/1
f 28/127/1 40/66/1 121/72/1
f 36/38/4 39/37/4 38/43/4
f 44/44/5 47/43/5 46/73/5
f 143/71/1 139/70/1 44/69/1
f 44/69/1 45/74/1 143/71/1
f 138/75/1 45/74/1 131/191/1
f 131/191/1 130/77/1 138/75/1
f 130/77/1 57/192/1 136/76/1
f 57/192/1 50/151/1 136/76/1
f 50/67/4 57/36/4 58/68/4
f 48/78/8 51/79/8 40/52/8
f 50/79/2 49/78/2 42/53/2
f 51/80/1 50/151/1 41/45/1
f 49/81/7 48/80/7 43/66/7
f 54/83/7 49/81/7 58/192/7
f 58/192/7 129/77/7 54/83/7
f 129/77/7 128/193/7 52/82/7
f 128/193/7 46/190/7 52/82/7
f 53/70/7 47/69/7 133/194/7
f 133/194/7 132/85/7 53/70/7
f 132/85/7 56/195/7 55/84/7
f 56/195/7 48/80/7 55/84/7
f 48/80/7 49/81/7 142/86/7
f 49/81/7 54/83/7 142/86/7
f 128/87/5 131/146/5 45/67/5
f 132/88/8 135/149/8 59/79/8
f 48/43/4 56/148/4 59/89/4
f 134/90/5 133/147/5 47/43/5
f 137/91/1 51/80/1 59/196/1
f 59/196/1 135/92/1 137/91/1
f 135/92/1 134/194/1 139/70/1
f 134/194/1 44/69/1 139/70/1
f 35/58/5 64/174/5 157/57/5
f 65/39/7 64/40/7 35/60/7
f 62/94/4 63/95/4 33/68/4
f 60/40/1 62/39/1 32/46/1
f 61/95/5 60/94/5 30/36/5
f 70/96/7 71/41/7 64/40/7
f 71/41/7 74/188/7 64/40/7
f 65/39/7 75/189/7 70/96/7
f 69/97/8 73/156/8 63/98/8
f 164/100/8 72/51/8 61/53/8
f 167/102/8 75/197/8 65/54/8
f 76/99/8 79/98/8 78/53/8
f 76/104/1 77/33/1 89/35/1
f 94/105/1 83/119/1 104/106/1
f 77/108/5 78/111/5 86/109/5
f 82/111/4 83/108/4 94/110/4
f 83/112/8 82/115/8 105/113/8
f 80/115/2 81/112/2 110/114/2
f 92/116/7 80/123/7 111/117/7
f 82/119/7 93/105/7 106/107/7
f 93/105/7 92/116/7 107/118/7
f 92/120/4 95/122/4 81/42/4
f 93/109/4 94/110/4 95/122/4
f 88/122/5 87/120/5 29/121/5
f 89/110/5 86/109/5 87/120/5
f 81/123/1 95/116/1 108/118/1
f 95/116/1 94/105/1 109/107/1
f 37/44/4 38/43/4 124/124/4
f 90/34/1 89/35/1 88/126/1
f 124/72/7 38/63/7 43/66/7
f 43/66/7 29/127/7 124/72/7
f 86/35/7 85/34/7 84/65/7
f 84/98/8 91/99/8 102/129/8
f 99/130/2 97/129/2 120/131/2
f 101/120/5 102/122/5 103/110/5
f 106/107/7 116/136/7 150/133/7
f 127/128/7 29/127/7 87/126/7
f 87/126/7 84/65/7 126/50/7
f 148/135/4 150/141/4 115/111/4
f 149/134/1 148/133/1 119/136/1
f 119/110/4 118/122/4 117/120/4
f 110/117/1 108/118/1 118/137/1
f 109/114/2 119/140/2 116/139/2
f 107/118/7 111/117/7 113/138/7
f 111/113/2 110/114/2 112/140/2
f 147/141/5 146/135/5 96/108/5
f 146/142/1 145/198/1 90/34/1
f 119/136/1 114/145/1 96/144/1
f 114/140/8 115/139/8 98/130/8
f 113/139/2 112/140/2 97/129/2
f 117/137/7 113/138/7 99/48/7
f 115/145/7 116/136/7 100/143/7
f 116/136/7 117/137/7 101/64/7
f 112/138/1 118/137/1 102/64/1
f 118/137/1 119/136/1 103/143/1
f 118/140/8 108/114/8 107/113/8
f 108/122/5 109/110/5 106/109/5
f 85/109/4 90/110/4 91/122/4
f 100/130/2 103/129/2 90/99/2
f 120/49/1 123/50/1 122/128/1
f 127/128/7 126/50/7 125/49/7
f 125/121/9 120/42/9 121/125/9
f 122/128/1 123/50/1 88/126/1
f 123/50/1 91/65/1 88/126/1
f 129/68/10 130/36/10 131/146/10
f 133/147/11 134/90/11 135/89/11
f 130/149/2 129/88/2 58/78/2
f 141/71/7 53/70/7 55/84/7
f 50/151/1 51/80/1 140/150/1
f 51/80/1 137/91/1 140/150/1
f 140/152/5 142/199/5 54/73/5
f 139/70/1 143/71/1 140/150/1
f 141/153/2 142/200/2 140/154/2
f 136/154/8 54/200/8 52/153/8
f 52/73/4 141/199/4 143/152/4
f 146/129/8 147/130/8 144/98/8
f 149/114/8 151/113/8 150/139/8
f 151/141/5 149/135/5 104/108/5
f 85/34/7 144/198/7 147/142/7
f 145/135/4 144/141/4 79/111/4
f 73/156/8 166/158/8 158/157/8
f 166/158/8 167/102/8 159/103/8
f 160/158/2 66/97/2 67/155/2
f 160/158/2 67/155/2 163/100/2
f 71/160/2 70/197/2 161/102/2
f 161/102/2 160/158/2 163/100/2
f 162/159/2 71/160/2 161/102/2
f 74/160/8 165/162/8 157/55/8
f 165/162/8 164/100/8 156/101/8
f 73/95/4 69/94/4 66/201/4
f 66/201/4 160/168/4 169/163/4
f 168/164/4 166/166/4 73/95/4
f 66/201/4 169/163/4 73/95/4
f 170/165/4 167/57/4 166/166/4
f 174/167/5 162/202/5 163/168/5
f 152/169/5 156/166/5 61/95/5
f 153/93/5 157/57/5 156/166/5
f 63/95/4 158/166/4 155/169/4
f 158/166/4 159/57/4 154/59/4
f 155/157/8 152/101/8 31/53/8
f 154/56/8 153/55/8 152/101/8
f 165/57/5 175/165/5 173/164/5
f 168/158/2 173/100/2 175/162/2
f 161/170/4 171/175/4 169/163/4
f 170/171/1 175/177/1 174/172/1
f 161/170/4 70/176/4 171/175/4
f 70/176/4 75/174/4 171/175/4
f 75/174/4 167/57/4 170/165/4
f 165/57/5 74/174/5 175/165/5
f 74/174/5 71/176/5 175/165/5
f 71/176/5 162/202/5 174/167/5
f 163/168/5 67/201/5 172/163/5
f 67/201/5 68/94/5 72/95/5
f 72/95/5 164/166/5 173/164/5
f 67/201/5 72/95/5 172/163/5
f 169/173/7 172/172/7 173/177/7
f 171/102/8 174/159/8 172/100/8
f 25/178/2 22/18/2 24/179/2
